<mxfile host="app.diagrams.net" modified="2021-12-15T09:08:53.509Z" agent="5.0 (Windows NT 10.0; Win64; x64) AppleWebKit/537.36 (KHTML, like Gecko) Chrome/96.0.4664.110 Safari/537.36" etag="jUdVZHb_FOxj5DoeuBeE" version="15.9.6" type="github">
  <diagram id="N6zyWGAPHFGZVjDJTGo3" name="Page-1">
    <mxGraphModel dx="1422" dy="705" grid="1" gridSize="10" guides="1" tooltips="1" connect="1" arrows="1" fold="1" page="1" pageScale="1" pageWidth="850" pageHeight="1100" math="0" shadow="0">
      <root>
        <mxCell id="0" />
        <mxCell id="1" parent="0" />
        <mxCell id="ZYUGhNTE9C0X9Pmf1UJG-1" value="Software Package" style="whiteSpace=wrap;html=1;align=center;" vertex="1" parent="1">
          <mxGeometry x="190" y="190" width="100" height="40" as="geometry" />
        </mxCell>
        <mxCell id="ZYUGhNTE9C0X9Pmf1UJG-2" value="Computer" style="whiteSpace=wrap;html=1;align=center;" vertex="1" parent="1">
          <mxGeometry x="190" y="410" width="100" height="40" as="geometry" />
        </mxCell>
        <mxCell id="ZYUGhNTE9C0X9Pmf1UJG-3" value="Employee" style="whiteSpace=wrap;html=1;align=center;" vertex="1" parent="1">
          <mxGeometry x="550" y="290" width="100" height="40" as="geometry" />
        </mxCell>
        <mxCell id="ZYUGhNTE9C0X9Pmf1UJG-4" value="CertifiedToUse" style="shape=rhombus;perimeter=rhombusPerimeter;whiteSpace=wrap;html=1;align=center;" vertex="1" parent="1">
          <mxGeometry x="350" y="180" width="120" height="60" as="geometry" />
        </mxCell>
        <mxCell id="ZYUGhNTE9C0X9Pmf1UJG-5" value="InstalledAt" style="shape=rhombus;perimeter=rhombusPerimeter;whiteSpace=wrap;html=1;align=center;" vertex="1" parent="1">
          <mxGeometry x="180" y="280" width="120" height="60" as="geometry" />
        </mxCell>
        <mxCell id="ZYUGhNTE9C0X9Pmf1UJG-6" value="Maintains" style="shape=rhombus;perimeter=rhombusPerimeter;whiteSpace=wrap;html=1;align=center;" vertex="1" parent="1">
          <mxGeometry x="350" y="280" width="120" height="60" as="geometry" />
        </mxCell>
        <mxCell id="ZYUGhNTE9C0X9Pmf1UJG-7" value="IsAssignedTo" style="shape=rhombus;perimeter=rhombusPerimeter;whiteSpace=wrap;html=1;align=center;" vertex="1" parent="1">
          <mxGeometry x="350" y="400" width="120" height="60" as="geometry" />
        </mxCell>
        <mxCell id="ZYUGhNTE9C0X9Pmf1UJG-8" value="" style="fontSize=12;html=1;endArrow=ERoneToMany;rounded=0;entryX=0.5;entryY=0;entryDx=0;entryDy=0;" edge="1" parent="1" target="ZYUGhNTE9C0X9Pmf1UJG-2">
          <mxGeometry width="100" height="100" relative="1" as="geometry">
            <mxPoint x="240" y="340" as="sourcePoint" />
            <mxPoint x="340" y="240" as="targetPoint" />
          </mxGeometry>
        </mxCell>
        <mxCell id="ZYUGhNTE9C0X9Pmf1UJG-9" value="" style="fontSize=12;html=1;endArrow=ERoneToMany;rounded=0;entryX=0.16;entryY=0.025;entryDx=0;entryDy=0;entryPerimeter=0;" edge="1" parent="1" target="ZYUGhNTE9C0X9Pmf1UJG-3">
          <mxGeometry width="100" height="100" relative="1" as="geometry">
            <mxPoint x="469" y="210" as="sourcePoint" />
            <mxPoint x="469" y="280" as="targetPoint" />
            <Array as="points">
              <mxPoint x="566" y="210" />
            </Array>
          </mxGeometry>
        </mxCell>
        <mxCell id="ZYUGhNTE9C0X9Pmf1UJG-10" value="" style="fontSize=12;html=1;endArrow=ERoneToMany;rounded=0;entryX=0.16;entryY=1.05;entryDx=0;entryDy=0;entryPerimeter=0;" edge="1" parent="1" target="ZYUGhNTE9C0X9Pmf1UJG-3">
          <mxGeometry width="100" height="100" relative="1" as="geometry">
            <mxPoint x="470" y="430" as="sourcePoint" />
            <mxPoint x="470" y="500" as="targetPoint" />
            <Array as="points">
              <mxPoint x="566" y="430" />
            </Array>
          </mxGeometry>
        </mxCell>
        <mxCell id="ZYUGhNTE9C0X9Pmf1UJG-13" value="" style="fontSize=12;html=1;endArrow=ERzeroToMany;endFill=1;rounded=0;entryX=1;entryY=0.5;entryDx=0;entryDy=0;" edge="1" parent="1" target="ZYUGhNTE9C0X9Pmf1UJG-1">
          <mxGeometry width="100" height="100" relative="1" as="geometry">
            <mxPoint x="350" y="210" as="sourcePoint" />
            <mxPoint x="450" y="110" as="targetPoint" />
          </mxGeometry>
        </mxCell>
        <mxCell id="ZYUGhNTE9C0X9Pmf1UJG-14" value="" style="fontSize=12;html=1;endArrow=ERzeroToMany;endFill=1;rounded=0;entryX=1;entryY=0.5;entryDx=0;entryDy=0;exitX=0.5;exitY=0;exitDx=0;exitDy=0;" edge="1" parent="1" source="ZYUGhNTE9C0X9Pmf1UJG-5">
          <mxGeometry width="100" height="100" relative="1" as="geometry">
            <mxPoint x="300" y="230" as="sourcePoint" />
            <mxPoint x="240" y="230" as="targetPoint" />
          </mxGeometry>
        </mxCell>
        <mxCell id="ZYUGhNTE9C0X9Pmf1UJG-15" value="" style="fontSize=12;html=1;endArrow=ERzeroToMany;endFill=1;rounded=0;entryX=0.75;entryY=0;entryDx=0;entryDy=0;edgeStyle=orthogonalEdgeStyle;" edge="1" parent="1" target="ZYUGhNTE9C0X9Pmf1UJG-2">
          <mxGeometry width="100" height="100" relative="1" as="geometry">
            <mxPoint x="350" y="309.5" as="sourcePoint" />
            <mxPoint x="290" y="309.5" as="targetPoint" />
            <Array as="points">
              <mxPoint x="350" y="360" />
              <mxPoint x="265" y="360" />
            </Array>
          </mxGeometry>
        </mxCell>
        <mxCell id="ZYUGhNTE9C0X9Pmf1UJG-16" value="" style="fontSize=12;html=1;endArrow=ERzeroToMany;endFill=1;rounded=0;entryX=1;entryY=0.5;entryDx=0;entryDy=0;" edge="1" parent="1">
          <mxGeometry width="100" height="100" relative="1" as="geometry">
            <mxPoint x="350" y="429.5" as="sourcePoint" />
            <mxPoint x="290" y="429.5" as="targetPoint" />
          </mxGeometry>
        </mxCell>
        <mxCell id="ZYUGhNTE9C0X9Pmf1UJG-17" value="" style="edgeStyle=entityRelationEdgeStyle;fontSize=12;html=1;endArrow=ERmandOne;rounded=0;entryX=0;entryY=0.5;entryDx=0;entryDy=0;" edge="1" parent="1" target="ZYUGhNTE9C0X9Pmf1UJG-3">
          <mxGeometry width="100" height="100" relative="1" as="geometry">
            <mxPoint x="470" y="310" as="sourcePoint" />
            <mxPoint x="570" y="210" as="targetPoint" />
          </mxGeometry>
        </mxCell>
        <mxCell id="ZYUGhNTE9C0X9Pmf1UJG-19" value="SPID" style="ellipse;whiteSpace=wrap;html=1;align=center;fontStyle=4;" vertex="1" parent="1">
          <mxGeometry x="190" y="120" width="100" height="40" as="geometry" />
        </mxCell>
        <mxCell id="ZYUGhNTE9C0X9Pmf1UJG-20" value="CompID" style="ellipse;whiteSpace=wrap;html=1;align=center;fontStyle=4;" vertex="1" parent="1">
          <mxGeometry x="50" y="410" width="100" height="40" as="geometry" />
        </mxCell>
        <mxCell id="ZYUGhNTE9C0X9Pmf1UJG-21" value="EmpId" style="ellipse;whiteSpace=wrap;html=1;align=center;fontStyle=4;" vertex="1" parent="1">
          <mxGeometry x="660" y="230" width="100" height="40" as="geometry" />
        </mxCell>
        <mxCell id="ZYUGhNTE9C0X9Pmf1UJG-22" value="NoOfInstallations" style="ellipse;whiteSpace=wrap;html=1;align=center;dashed=1;" vertex="1" parent="1">
          <mxGeometry x="50" y="190" width="100" height="40" as="geometry" />
        </mxCell>
        <mxCell id="ZYUGhNTE9C0X9Pmf1UJG-23" value="EmpSkill" style="ellipse;shape=doubleEllipse;margin=3;whiteSpace=wrap;html=1;align=center;" vertex="1" parent="1">
          <mxGeometry x="660" y="350" width="100" height="40" as="geometry" />
        </mxCell>
        <mxCell id="ZYUGhNTE9C0X9Pmf1UJG-26" value="SPName" style="ellipse;whiteSpace=wrap;html=1;align=center;" vertex="1" parent="1">
          <mxGeometry x="50" y="120" width="100" height="40" as="geometry" />
        </mxCell>
        <mxCell id="ZYUGhNTE9C0X9Pmf1UJG-27" value="EmpName" style="ellipse;whiteSpace=wrap;html=1;align=center;" vertex="1" parent="1">
          <mxGeometry x="660" y="290" width="100" height="40" as="geometry" />
        </mxCell>
        <mxCell id="ZYUGhNTE9C0X9Pmf1UJG-28" value="DateOfInstall" style="ellipse;whiteSpace=wrap;html=1;align=center;" vertex="1" parent="1">
          <mxGeometry x="50" y="290" width="100" height="40" as="geometry" />
        </mxCell>
        <mxCell id="ZYUGhNTE9C0X9Pmf1UJG-29" value="CompModel" style="ellipse;whiteSpace=wrap;html=1;align=center;" vertex="1" parent="1">
          <mxGeometry x="50" y="480" width="100" height="40" as="geometry" />
        </mxCell>
        <mxCell id="ZYUGhNTE9C0X9Pmf1UJG-30" value="CompMake" style="ellipse;whiteSpace=wrap;html=1;align=center;" vertex="1" parent="1">
          <mxGeometry x="190" y="480" width="100" height="40" as="geometry" />
        </mxCell>
        <mxCell id="ZYUGhNTE9C0X9Pmf1UJG-31" value="" style="endArrow=none;html=1;rounded=0;entryX=0.5;entryY=0;entryDx=0;entryDy=0;" edge="1" parent="1" target="ZYUGhNTE9C0X9Pmf1UJG-1">
          <mxGeometry relative="1" as="geometry">
            <mxPoint x="240" y="140" as="sourcePoint" />
            <mxPoint x="400" y="140" as="targetPoint" />
          </mxGeometry>
        </mxCell>
        <mxCell id="ZYUGhNTE9C0X9Pmf1UJG-33" value="" style="endArrow=none;html=1;rounded=0;entryX=0;entryY=0;entryDx=0;entryDy=0;exitX=1;exitY=1;exitDx=0;exitDy=0;" edge="1" parent="1" source="ZYUGhNTE9C0X9Pmf1UJG-26" target="ZYUGhNTE9C0X9Pmf1UJG-1">
          <mxGeometry relative="1" as="geometry">
            <mxPoint x="110" y="159" as="sourcePoint" />
            <mxPoint x="270" y="159" as="targetPoint" />
          </mxGeometry>
        </mxCell>
        <mxCell id="ZYUGhNTE9C0X9Pmf1UJG-34" value="" style="endArrow=none;html=1;rounded=0;entryX=0;entryY=0.5;entryDx=0;entryDy=0;" edge="1" parent="1" target="ZYUGhNTE9C0X9Pmf1UJG-1">
          <mxGeometry relative="1" as="geometry">
            <mxPoint x="150" y="209" as="sourcePoint" />
            <mxPoint x="255" y="240" as="targetPoint" />
          </mxGeometry>
        </mxCell>
        <mxCell id="ZYUGhNTE9C0X9Pmf1UJG-35" value="" style="endArrow=none;html=1;rounded=0;entryX=0;entryY=0.5;entryDx=0;entryDy=0;" edge="1" parent="1" target="ZYUGhNTE9C0X9Pmf1UJG-27">
          <mxGeometry relative="1" as="geometry">
            <mxPoint x="650" y="309" as="sourcePoint" />
            <mxPoint x="755" y="340" as="targetPoint" />
          </mxGeometry>
        </mxCell>
        <mxCell id="ZYUGhNTE9C0X9Pmf1UJG-36" value="" style="endArrow=none;html=1;rounded=0;entryX=0;entryY=0.5;entryDx=0;entryDy=0;" edge="1" parent="1" target="ZYUGhNTE9C0X9Pmf1UJG-5">
          <mxGeometry relative="1" as="geometry">
            <mxPoint x="150" y="309" as="sourcePoint" />
            <mxPoint x="255" y="340" as="targetPoint" />
          </mxGeometry>
        </mxCell>
        <mxCell id="ZYUGhNTE9C0X9Pmf1UJG-37" value="" style="endArrow=none;html=1;rounded=0;entryX=0;entryY=0.5;entryDx=0;entryDy=0;" edge="1" parent="1" target="ZYUGhNTE9C0X9Pmf1UJG-2">
          <mxGeometry relative="1" as="geometry">
            <mxPoint x="150" y="429" as="sourcePoint" />
            <mxPoint x="255" y="460" as="targetPoint" />
          </mxGeometry>
        </mxCell>
        <mxCell id="ZYUGhNTE9C0X9Pmf1UJG-38" value="" style="endArrow=none;html=1;rounded=0;entryX=0;entryY=1;entryDx=0;entryDy=0;" edge="1" parent="1" target="ZYUGhNTE9C0X9Pmf1UJG-2">
          <mxGeometry relative="1" as="geometry">
            <mxPoint x="130" y="484.5" as="sourcePoint" />
            <mxPoint x="235" y="515.5" as="targetPoint" />
          </mxGeometry>
        </mxCell>
        <mxCell id="ZYUGhNTE9C0X9Pmf1UJG-39" value="" style="endArrow=none;html=1;rounded=0;entryX=0.5;entryY=1;entryDx=0;entryDy=0;" edge="1" parent="1" target="ZYUGhNTE9C0X9Pmf1UJG-2">
          <mxGeometry relative="1" as="geometry">
            <mxPoint x="240" y="480" as="sourcePoint" />
            <mxPoint x="345" y="511" as="targetPoint" />
          </mxGeometry>
        </mxCell>
        <mxCell id="ZYUGhNTE9C0X9Pmf1UJG-40" value="" style="endArrow=none;html=1;rounded=0;exitX=0.75;exitY=0;exitDx=0;exitDy=0;entryX=0;entryY=1;entryDx=0;entryDy=0;" edge="1" parent="1" source="ZYUGhNTE9C0X9Pmf1UJG-3" target="ZYUGhNTE9C0X9Pmf1UJG-21">
          <mxGeometry relative="1" as="geometry">
            <mxPoint x="650" y="290" as="sourcePoint" />
            <mxPoint x="680" y="260" as="targetPoint" />
          </mxGeometry>
        </mxCell>
        <mxCell id="ZYUGhNTE9C0X9Pmf1UJG-41" value="" style="endArrow=none;html=1;rounded=0;entryX=0;entryY=0;entryDx=0;entryDy=0;" edge="1" parent="1" target="ZYUGhNTE9C0X9Pmf1UJG-23">
          <mxGeometry relative="1" as="geometry">
            <mxPoint x="620" y="330" as="sourcePoint" />
            <mxPoint x="725" y="361" as="targetPoint" />
          </mxGeometry>
        </mxCell>
      </root>
    </mxGraphModel>
  </diagram>
</mxfile>
